<svg width="32" height="32" viewBox="0 0 32 32" fill="none" xmlns="http://www.w3.org/2000/svg">
<g clip-path="url(#clip0_2855_5)">
<rect width="31.88" height="32" fill="white"/>
<rect width="32" height="32" fill="#93ABD9"/>
<path d="M6.15592 10.6794C3.65686 14.1799 5.0009 23.0942 5.41076 24.7422C8.15751 30.5651 26.0654 30.7849 27.2739 23.0942C28.4825 15.4036 25.9999 13 26.0654 10.6794C26.1131 8.99171 25.8457 4.34381 25.0766 2L20.0228 8.04262C16.595 6.90002 13.321 7.56654 12.1125 8.04262L7.38823 2C5.49981 9 6.83689 9.72556 6.15592 10.6794Z" fill="black"/>
<path d="M15.8962 20.3477L17.3829 18.1504H14.3066L15.8962 20.3477Z" fill="#EDE986"/>
<path d="M20.1309 18.4801C21.0464 18.2604 23.4928 17.8868 25.9538 18.1505" stroke="#F2619C" stroke-width="0.4"/>
<path d="M19.5895 19.1768C20.529 19.114 23.0033 19.1569 25.385 19.8305" stroke="#F2619C" stroke-width="0.4"/>
<path d="M19.4746 19.9083C20.5 19.8717 22.9244 20.1061 24.4186 21.3366" stroke="#F2619C" stroke-width="0.4"/>
<path d="M12.1113 18.2599C11.1958 18.0402 8.74943 17.6666 6.28844 17.9303" stroke="#F2619C" stroke-width="0.4"/>
<path d="M12.6566 18.9573C11.7171 18.8945 9.24279 18.9374 6.86111 19.611" stroke="#F2619C" stroke-width="0.4"/>
<path d="M12.7715 19.6883C11.7461 19.6517 9.3217 19.8861 7.82752 21.1166" stroke="#F2619C" stroke-width="0.4"/>
<ellipse cx="11.1256" cy="14.8541" rx="2.74665" ry="2.19732" fill="white"/>
<ellipse cx="11.2324" cy="14.5247" rx="0.439463" ry="1.42826" fill="black"/>
<ellipse cx="21.2291" cy="14.8541" rx="2.74665" ry="2.19732" fill="white"/>
<ellipse cx="21.3379" cy="14.5247" rx="0.439463" ry="1.42826" fill="black"/>
</g>
<defs>
<clipPath id="clip0_2855_5">
<rect width="31.88" height="32" fill="white"/>
</clipPath>
</defs>
</svg>
